<?xml version="1.0" standalone="no"?>
<!DOCTYPE svg PUBLIC "-//W3C//DTD SVG 20010904//EN"
 "http://www.w3.org/TR/2001/REC-SVG-20010904/DTD/svg10.dtd">
<svg version="1.0" xmlns="http://www.w3.org/2000/svg"
 width="256.000000pt" height="256.000000pt" viewBox="0 0 256.000000 256.000000"
 preserveAspectRatio="xMidYMid meet">
<metadata>
Created by potrace 1.11, written by Peter Selinger 2001-2013
</metadata>
<g transform="translate(0.000000,256.000000) scale(0.100000,-0.100000)"
fill="#000000" stroke="none">
<path d="M390 2391 c-91 -28 -174 -104 -206 -187 -18 -47 -19 -86 -19 -854 0
-768 1 -807 19 -854 24 -63 86 -130 151 -164 l50 -27 895 0 895 0 50 27 c65
34 127 101 151 164 18 47 19 86 19 854 0 768 -1 807 -19 854 -24 63 -86 130
-151 164 l-50 27 -880 2 c-484 1 -891 -2 -905 -6z m1725 -1041 l0 -765 -835 0
-835 0 -3 755 c-1 415 0 761 3 768 3 10 176 12 837 10 l833 -3 0 -765z"/>
<path d="M754 1570 c-30 -12 -54 -49 -54 -84 0 -24 22 -51 122 -153 l122 -123
-116 -117 c-63 -65 -119 -128 -123 -141 -17 -55 47 -121 104 -107 30 8 314
284 338 329 9 17 12 38 8 55 -7 29 -284 314 -327 337 -30 16 -44 17 -74 4z"/>
<path d="M1280 930 l0 -70 210 0 210 0 0 70 0 70 -210 0 -210 0 0 -70z"/>
</g>
</svg>
